<?xml version="1.0" encoding="UTF-8"?>
<!DOCTYPE svg PUBLIC "-//W3C//DTD SVG 1.1//EN" "http://www.w3.org/Graphics/SVG/1.1/DTD/svg11.dtd">
<!-- Creator: CorelDRAW (Evaluation Version) -->
<svg xmlns="http://www.w3.org/2000/svg" xml:space="preserve" width="0.126488in" height="0.106665in" version="1.1" style="shape-rendering:geometricPrecision; text-rendering:geometricPrecision; image-rendering:optimizeQuality; fill-rule:evenodd; clip-rule:evenodd"
viewBox="0 0 0.24 0.2"
 xmlns:xlink="http://www.w3.org/1999/xlink"
 xmlns:xodm="http://www.corel.com/coreldraw/odm/2003">
 <defs>
  <style type="text/css">
   <![CDATA[
    .fil1 {fill:white;fill-rule:nonzero}
    .fil0 {fill:#0066FF;fill-rule:nonzero}
   ]]>
  </style>
 </defs>
 <g id="Layer_x0020_1">
  <metadata id="CorelCorpID_0Corel-Layer"/>
  <path id="path14" class="fil0" d="M0.22 0.02c-0,-0 -0,-0 -0,-0.01 0,-0.01 0,-0.01 0,-0.01 0,-0 0,-0 0.01,-0 0.01,0 0.01,0 0.01,0 0,0 0,0 0,0.01 0,0.01 -0,0.01 -0,0.01 -0,0 -0,0 -0.01,0 -0.01,0 -0.01,-0 -0.01,-0l0 0z"/>
  <path id="path13" class="fil0" d="M0.19 0.04c-0.01,-0 -0.01,-0 -0.01,-0 -0,-0 -0,-0 -0,-0.01 0,-0.01 0,-0.01 0,-0.01 0,-0 0,-0 0.01,-0 0.01,0 0.01,0 0.01,0 0,0 0,0 0,0.01 -0,0.01 -0,0.01 -0,0.01 -0,0 -0,0 -0.01,0l0 0z"/>
  <path id="path12" class="fil0" d="M0.21 0.04c-0,-0 -0,-0 -0,-0.01l0 -0 0.01 0 0.01 0 0 0.01 0 0.01 -0 0c-0,0 -0.01,-0 -0.01,-0z"/>
  <path id="path11" class="fil0" d="M0.15 0.06c-0,-0 -0,-0 -0,-0.01 0,-0.01 0,-0.01 0,-0.01 0,-0 0,-0 0.01,-0 0.01,0 0.01,0 0.01,0 0,0 0,0 0,0.01 0,0.01 -0,0.01 -0,0.01 -0,0 -0,0 -0.01,0 -0.01,-0 -0.01,-0 -0.01,-0l0 0z"/>
  <path id="path10" class="fil0" d="M0.19 0.07c-0,-0 -0,-0 -0,-0.01 0,-0.01 0,-0.01 0,-0.01 0,-0 0.01,-0 0.01,0 0,0 0,0 0,0.01 0,0.01 0,0.01 -0.01,0.01 -0,-0 -0.01,-0 -0.01,-0l0 0z"/>
  <path id="path9" class="fil0" d="M0.12 0.09c-0,-0 -0,-0 -0,-0.01 0,-0.01 0,-0.01 0,-0.01 0,-0 0,-0 0.01,-0 0.01,0 0.01,0 0.01,0 0,0 0,0 0,0.01 0,0.01 -0,0.01 -0,0.01 -0,0 -0,0 -0.01,0 -0.01,0 -0.01,-0 -0.01,-0l0 0z"/>
  <path id="path8" class="fil0" d="M0.16 0.09c-0,-0 -0,-0 -0,-0.01 0,-0.01 0,-0.01 0,-0.01 0,-0 0,-0 0.01,-0 0.01,0 0.01,0 0.01,0 0,0 0,0 0,0.01 0,0.01 -0,0.01 -0,0.01 -0,0 -0.02,0 -0.02,0z"/>
  <path id="path7" class="fil1" d="M0.02 0.2c-0.02,-0 -0.02,-0 -0.02,-0 -0,-0 -0,-0 0.04,-0.04l0.04 -0.04 -0 -0c-0,-0.01 -0.03,-0.03 -0.05,-0.05 -0.02,-0.02 -0.02,-0.02 -0.02,-0.02 0,-0 0.01,-0 0.03,-0 0.04,0 0.03,-0 0.04,0.01 0,0 0.01,0.01 0.01,0.01 0,0.01 0.01,0.01 0.01,0.01l0 0 -0 0c-0,0 -0,0 -0,0 0,0 0,0 0,0 0,-0 0,-0 0.01,-0 0.01,0 0.01,0 0.01,0 0,0 0,0 0,0.01 0,0.01 -0,0.01 -0,0.01l-0 0 0 0 0 0 0 0 0 0 0 -0.01c0,-0.01 0,-0.01 0,-0.01 0,-0 0,-0 0.01,-0 0,0 0.01,0 0.01,0 0,0 0,0 0,0.01 0,0.01 -0,0.01 -0,0.01 -0,0 -0,0 -0.01,0l-0.01 0 -0 0c-0,0 -0,0.01 0,0.01 0,0 0,0 0.01,0 0.01,0 0.01,0 0.02,0.01 0.01,0.01 0.02,0.02 0.04,0.04 0.02,0.02 0.02,0.02 0.02,0.02 -0,0 -0,0 -0.03,0 -0.02,0 -0.03,-0 -0.03,-0 -0.01,-0 -0.01,-0 -0.01,-0.01 -0,-0 -0.04,-0.04 -0.04,-0.04l-0 -0 -0.02 0.02c-0.01,0.01 -0.02,0.02 -0.02,0.02 -0,0 -0.01,0 -0.02,0.01 -0,0 -0.01,0 -0.02,0l0 0z"/>
 </g>
</svg>
