<?xml version="1.0" encoding="UTF-8"?>
<!DOCTYPE svg PUBLIC "-//W3C//DTD SVG 1.1//EN" "http://www.w3.org/Graphics/SVG/1.1/DTD/svg11.dtd">
<!-- Creator: CorelDRAW (Evaluation Version) -->
<svg xmlns="http://www.w3.org/2000/svg" xml:space="preserve" width="1.87742in" height="1.58326in" version="1.1" style="shape-rendering:geometricPrecision; text-rendering:geometricPrecision; image-rendering:optimizeQuality; fill-rule:evenodd; clip-rule:evenodd"
viewBox="0 0 60.91 51.36"
 xmlns:xlink="http://www.w3.org/1999/xlink"
 xmlns:xodm="http://www.corel.com/coreldraw/odm/2003">
 <defs>
  <style type="text/css">
   <![CDATA[
    .fil1 {fill:black;fill-rule:nonzero}
    .fil0 {fill:#0066FF;fill-rule:nonzero}
   ]]>
  </style>
 </defs>
 <g id="Layer_x0020_1">
  <metadata id="CorelCorpID_0Corel-Layer"/>
  <path id="path14" class="fil0" d="M56.03 4.95c-0.23,-0.16 -0.23,-0.21 -0.23,-2.38 0,-2.02 0.02,-2.24 0.19,-2.39 0.16,-0.15 0.49,-0.17 2.35,-0.17 2.02,0 2.17,0.01 2.37,0.21 0.2,0.2 0.21,0.35 0.21,2.35 0,2 -0.01,2.15 -0.21,2.35 -0.19,0.19 -0.35,0.21 -2.32,0.21 -1.75,0 -2.16,-0.03 -2.35,-0.16l0 0z"/>
  <path id="path13" class="fil0" d="M49.85 10.04c-1.8,-0.02 -2.16,-0.05 -2.32,-0.2 -0.17,-0.15 -0.19,-0.38 -0.19,-2.35 0,-2.04 0.01,-2.19 0.21,-2.38 0.2,-0.2 0.35,-0.21 2.34,-0.21 1.87,0 2.15,0.02 2.35,0.18 0.22,0.18 0.22,0.24 0.19,2.47 -0.03,2.16 -0.04,2.29 -0.24,2.4 -0.14,0.08 -0.91,0.11 -2.34,0.09l0 0z"/>
  <path id="path12" class="fil0" d="M54.07 10.51c-0.03,-0.08 -0.04,-0.68 -0.02,-1.33l0.03 -1.19 1.3 0 1.3 0 0 1.3 0 1.3 -1.28 0.03c-1,0.02 -1.29,-0 -1.33,-0.11z"/>
  <path id="path11" class="fil0" d="M39.42 16.1c-0.39,-0.14 -0.42,-0.32 -0.42,-3.17 0,-2.56 0.02,-2.79 0.19,-2.95 0.17,-0.15 0.54,-0.17 3.07,-0.17 2.83,0 2.89,0 3.1,0.23 0.2,0.22 0.21,0.36 0.21,2.97 0,2.61 -0.01,2.76 -0.21,2.95 -0.2,0.2 -0.34,0.21 -3,0.2 -1.53,-0 -2.86,-0.03 -2.95,-0.06l0 0z"/>
  <path id="path10" class="fil0" d="M48.05 16.91c-0.34,-0.1 -0.39,-0.37 -0.39,-2.01 0,-1.35 0.03,-1.67 0.16,-1.81 0.24,-0.24 3.6,-0.24 3.85,0 0.14,0.14 0.16,0.45 0.16,1.83 0,2.22 0.11,2.11 -2.04,2.06 -0.88,-0.02 -1.67,-0.05 -1.74,-0.07l-0 0z"/>
  <path id="path9" class="fil0" d="M31.93 21.85c-0.23,-0.16 -0.23,-0.19 -0.23,-3.01 0,-2.63 0.01,-2.86 0.19,-3.02 0.17,-0.15 0.53,-0.17 3.03,-0.17 2.7,0 2.84,0.01 3.04,0.21 0.2,0.2 0.21,0.35 0.21,2.97 0,2.63 -0.01,2.78 -0.21,2.97 -0.2,0.2 -0.35,0.21 -3,0.21 -2.36,0 -2.83,-0.03 -3.03,-0.16l0 0z"/>
  <path id="path8" class="fil0" d="M41.14 23.62c-0.14,-0.14 -0.16,-0.47 -0.16,-1.97 0,-1.51 0.03,-1.84 0.16,-1.97 0.14,-0.14 0.48,-0.16 2.07,-0.16 1.71,0 1.92,0.02 2.08,0.19 0.15,0.16 0.17,0.46 0.17,1.97 0,1.59 -0.02,1.79 -0.19,1.95 -0.28,0.25 -3.88,0.26 -4.13,0.01z"/>
  <path id="path7" class="fil1" d="M6.25 51.35c-5.29,-0.02 -5.91,-0.04 -6.08,-0.2 -0.47,-0.43 -0.71,-0.17 9.96,-10.84l10.15 -10.15 -0.93 -0.97c-1.28,-1.34 -7.39,-7.61 -12.45,-12.78 -4.27,-4.36 -4.43,-4.56 -4.08,-4.92 0.1,-0.1 1.89,-0.13 7.46,-0.13 9.17,0 8.4,-0.17 10.87,2.37 0.77,0.79 2.44,2.5 3.7,3.79 1.27,1.29 2.71,2.77 3.22,3.3l0.91 0.95 -0.42 0.53c-0.38,0.47 -0.41,0.56 -0.29,0.75 0.15,0.24 0.25,0.27 0.34,0.11 0.04,-0.06 0.73,-0.1 1.72,-0.1 1.53,0 1.67,0.02 1.77,0.2 0.06,0.11 0.11,0.87 0.11,1.71 0,1.49 -0,1.51 -0.26,1.7l-0.26 0.19 0.48 0.55 0.48 0.55 1.14 -0 1.14 0 0 -1.55c0,-1.37 0.02,-1.57 0.19,-1.72 0.16,-0.15 0.47,-0.17 2.04,-0.17 1.08,0 1.93,0.05 2.05,0.11 0.19,0.1 0.2,0.24 0.2,2.07 0,1.38 -0.04,1.99 -0.13,2.08 -0.09,0.09 -0.67,0.13 -1.97,0.13l-1.85 0 -0.04 1.28c-0.03,0.92 -0.01,1.32 0.08,1.42 0.08,0.09 0.61,0.19 1.42,0.28 2.13,0.22 1.93,0.11 4.03,2.27 2.25,2.32 5.94,6.08 10.51,10.71 6.01,6.09 5.88,5.93 5.34,6.31 -0.2,0.14 -1.05,0.16 -7.05,0.16 -4.49,0 -7.07,-0.04 -7.57,-0.12 -1.37,-0.21 -2.79,-0.83 -3.5,-1.54 -0.55,-0.55 -9.03,-9.22 -9.82,-10.06l-0.68 -0.71 -5.37 5.38c-2.95,2.96 -5.62,5.55 -5.93,5.76 -1.16,0.77 -2.56,1.2 -4.24,1.31 -0.29,0.02 -3.17,0.02 -6.41,0.01l0 0z"/>
 </g>
</svg>
