<?xml version="1.0" encoding="UTF-8"?>
<!DOCTYPE svg PUBLIC "-//W3C//DTD SVG 1.1//EN" "http://www.w3.org/Graphics/SVG/1.1/DTD/svg11.dtd">
<!-- Creator: CorelDRAW (Evaluation Version) -->
<svg xmlns="http://www.w3.org/2000/svg" xml:space="preserve" width="1.87742in" height="1.58326in" version="1.1" style="shape-rendering:geometricPrecision; text-rendering:geometricPrecision; image-rendering:optimizeQuality; fill-rule:evenodd; clip-rule:evenodd"
viewBox="0 0 66.1 55.75"
 xmlns:xlink="http://www.w3.org/1999/xlink"
 xmlns:xodm="http://www.corel.com/coreldraw/odm/2003">
 <defs>
  <style type="text/css">
   <![CDATA[
    .fil1 {fill:white;fill-rule:nonzero}
    .fil0 {fill:#0066FF;fill-rule:nonzero}
   ]]>
  </style>
 </defs>
 <g id="Layer_x0020_1">
  <metadata id="CorelCorpID_0Corel-Layer"/>
  <path id="path14" class="fil0" d="M60.81 5.37c-0.25,-0.17 -0.25,-0.22 -0.25,-2.59 0,-2.19 0.02,-2.43 0.21,-2.6 0.18,-0.16 0.53,-0.19 2.55,-0.19 2.19,0 2.36,0.01 2.57,0.23 0.21,0.21 0.23,0.38 0.23,2.55 0,2.17 -0.01,2.34 -0.23,2.55 -0.21,0.21 -0.38,0.23 -2.52,0.23 -1.89,0 -2.34,-0.03 -2.55,-0.18l0 0z"/>
  <path id="path13" class="fil0" d="M54.11 10.9c-1.95,-0.03 -2.35,-0.06 -2.52,-0.22 -0.18,-0.17 -0.2,-0.41 -0.2,-2.55 0,-2.21 0.01,-2.37 0.23,-2.59 0.21,-0.21 0.38,-0.23 2.54,-0.23 2.03,0 2.34,0.02 2.55,0.2 0.24,0.19 0.24,0.26 0.21,2.68 -0.03,2.34 -0.04,2.48 -0.26,2.6 -0.15,0.09 -0.99,0.12 -2.54,0.1l0 0z"/>
  <path id="path12" class="fil0" d="M58.68 11.4c-0.03,-0.08 -0.04,-0.73 -0.03,-1.45l0.03 -1.3 1.42 0 1.42 0 0 1.42 0 1.42 -1.39 0.03c-1.08,0.02 -1.4,-0 -1.45,-0.12z"/>
  <path id="path11" class="fil0" d="M42.78 17.47c-0.43,-0.15 -0.45,-0.34 -0.45,-3.44 0,-2.78 0.02,-3.03 0.21,-3.21 0.18,-0.16 0.58,-0.19 3.34,-0.19 3.07,0 3.13,0 3.36,0.25 0.22,0.24 0.23,0.39 0.23,3.23 0,2.83 -0.01,2.99 -0.23,3.21 -0.22,0.22 -0.37,0.23 -3.26,0.22 -1.67,-0 -3.11,-0.04 -3.2,-0.07l0 0z"/>
  <path id="path10" class="fil0" d="M52.15 18.36c-0.37,-0.11 -0.43,-0.4 -0.43,-2.18 0,-1.47 0.03,-1.81 0.18,-1.96 0.26,-0.26 3.91,-0.26 4.17,0 0.15,0.15 0.18,0.49 0.18,1.98 0,2.41 0.12,2.29 -2.21,2.24 -0.96,-0.02 -1.81,-0.06 -1.89,-0.08l-0 0z"/>
  <path id="path9" class="fil0" d="M34.65 23.71c-0.25,-0.17 -0.25,-0.2 -0.25,-3.27 0,-2.85 0.02,-3.1 0.21,-3.28 0.18,-0.16 0.58,-0.19 3.28,-0.19 2.93,0 3.09,0.01 3.3,0.23 0.22,0.22 0.23,0.38 0.23,3.23 0,2.85 -0.01,3.01 -0.23,3.23 -0.22,0.22 -0.38,0.23 -3.26,0.23 -2.56,0 -3.07,-0.03 -3.28,-0.18l0 0z"/>
  <path id="path8" class="fil0" d="M44.66 25.64c-0.15,-0.15 -0.18,-0.51 -0.18,-2.14 0,-1.64 0.03,-2 0.18,-2.14 0.15,-0.15 0.52,-0.18 2.25,-0.18 1.86,0 2.09,0.02 2.26,0.21 0.16,0.18 0.19,0.5 0.19,2.13 0,1.72 -0.02,1.95 -0.21,2.11 -0.3,0.27 -4.21,0.28 -4.48,0.01z"/>
  <path id="path7" class="fil1" d="M6.78 55.74c-5.75,-0.03 -6.41,-0.05 -6.6,-0.22 -0.51,-0.47 -0.77,-0.19 10.81,-11.77l11.01 -11.01 -1.01 -1.06c-1.39,-1.45 -8.02,-8.26 -13.51,-13.87 -4.63,-4.74 -4.81,-4.95 -4.42,-5.34 0.1,-0.1 2.06,-0.14 8.1,-0.14 9.96,0 9.12,-0.18 11.8,2.57 0.84,0.86 2.65,2.71 4.02,4.11 1.37,1.4 2.95,3.01 3.49,3.58l0.99 1.03 -0.46 0.58c-0.41,0.51 -0.44,0.6 -0.32,0.81 0.16,0.26 0.27,0.29 0.37,0.12 0.04,-0.07 0.79,-0.11 1.87,-0.11 1.66,0 1.81,0.02 1.92,0.22 0.07,0.12 0.12,0.94 0.12,1.86 0,1.62 -0,1.64 -0.28,1.85l-0.28 0.21 0.52 0.59 0.52 0.59 1.24 -0 1.24 0 0 -1.68c0,-1.48 0.02,-1.7 0.21,-1.87 0.18,-0.16 0.51,-0.19 2.22,-0.19 1.17,0 2.1,0.05 2.23,0.12 0.2,0.11 0.22,0.26 0.22,2.24 0,1.5 -0.04,2.16 -0.14,2.26 -0.1,0.1 -0.73,0.14 -2.14,0.14l-2 0 -0.05 1.39c-0.04,1 -0.01,1.43 0.09,1.54 0.09,0.1 0.66,0.21 1.54,0.3 2.31,0.24 2.1,0.12 4.37,2.47 2.44,2.52 6.44,6.6 11.41,11.63 6.53,6.61 6.38,6.44 5.8,6.84 -0.22,0.16 -1.14,0.18 -7.65,0.18 -4.87,0 -7.68,-0.04 -8.21,-0.13 -1.49,-0.23 -3.02,-0.91 -3.8,-1.67 -0.6,-0.59 -9.8,-10.01 -10.66,-10.91l-0.73 -0.77 -5.82 5.84c-3.2,3.21 -6.1,6.02 -6.44,6.25 -1.25,0.83 -2.78,1.3 -4.61,1.42 -0.31,0.02 -3.44,0.02 -6.96,0.01l0 0z"/>
 </g>
</svg>
