<?xml version="1.0" encoding="UTF-8" standalone="no"?>
<!-- Creator: CorelDRAW (Evaluation Version) -->

<svg
   xml:space="preserve"
   width="2.3506899in"
   height="0.90302008in"
   version="1.1"
   style="clip-rule:evenodd;fill-rule:evenodd;image-rendering:optimizeQuality;shape-rendering:geometricPrecision;text-rendering:geometricPrecision"
   viewBox="0 0 87.03 33.430002"
   id="svg1"
   xmlns="http://www.w3.org/2000/svg"
   xmlns:svg="http://www.w3.org/2000/svg">
 <defs
   id="defs1"><style
     type="text/css"
     id="style1">
   <![CDATA[
    .str1 {stroke:white;stroke-width:1.28;stroke-linejoin:round;stroke-miterlimit:2.61313}
    .str0 {stroke:white;stroke-width:1.94;stroke-linejoin:round;stroke-miterlimit:2.61313}
    .fil2 {fill:white;fill-rule:nonzero}
    .fil1 {fill:white;fill-rule:nonzero}
    .fil0 {fill:#0066FF;fill-rule:nonzero}
   ]]>
  </style></defs>
 <g
   id="Layer_x0020_1">
  <metadata
   id="CorelCorpID_0Corel-Layer" />
  <path
   id="path14"
   class="fil0"
   d="m 29.293675,3.6598551 c -0.09875,-0.071821 -0.107731,-0.089776 -0.107731,-1.0773136 0,-0.9157166 0.009,-1.0144703 0.08978,-1.0862912 0.07182,-0.062843 0.22444,-0.080799 1.059358,-0.080799 0.915717,0 0.97856,0.00898 1.068336,0.098754 0.08978,0.089776 0.09875,0.1615971 0.09875,1.0593584 0,0.9067389 -0.009,0.9695822 -0.09875,1.0593584 -0.08978,0.089776 -0.161597,0.089776 -1.05038,0.089776 -0.79003,0 -0.97856,-0.00898 -1.059359,-0.071821 v 0 z"
   style="stroke-width:0.897761" />
  <path
   id="path13"
   class="fil0"
   d="m 26.501638,5.9581241 c -0.816963,-0.00898 -0.97856,-0.026933 -1.050381,-0.089776 -0.0808,-0.071821 -0.0808,-0.1705747 -0.0808,-1.0593584 0,-0.9157166 0.009,-0.9875375 0.08978,-1.0773136 0.08978,-0.089776 0.161598,-0.098754 1.059359,-0.098754 0.843895,0 0.969582,0.00898 1.059358,0.080799 0.09875,0.080799 0.09875,0.1077313 0.08978,1.113224 -0.009,0.9785599 -0.01796,1.0324256 -0.107731,1.0862912 -0.06284,0.03591 -0.41297,0.044888 -1.059358,0.03591 v 0 z"
   style="stroke-width:0.897761" />
  <path
   id="path12"
   class="fil0"
   d="m 28.404892,6.1735868 c -0.009,-0.03591 -0.01796,-0.3052388 -0.009,-0.6015001 l 0.01796,-0.5386568 h 0.592523 0.592522 v 0.5925225 0.5925225 l -0.574567,0.00898 c -0.448881,0.00898 -0.583545,0 -0.6015,-0.053866 z"
   style="stroke-width:0.897761" />
  <path
   id="path11"
   class="fil0"
   d="m 21.788391,8.7052738 c -0.179553,-0.062843 -0.18853,-0.1436419 -0.18853,-1.4274406 0,-1.1581121 0.009,-1.2658434 0.08978,-1.3376643 0.07182,-0.071821 0.242395,-0.080798 1.39153,-0.080798 1.283799,0 1.301754,0 1.400508,0.1077313 0.08978,0.098754 0.09875,0.161597 0.09875,1.346642 0,1.1760673 -0.009,1.2478882 -0.09875,1.3376644 -0.08978,0.089776 -0.15262,0.089776 -1.35562,0.089776 -0.691276,0 -1.292776,-0.017955 -1.328687,-0.026933 v 0 z"
   style="stroke-width:0.897761" />
  <path
   id="path10"
   class="fil0"
   d="m 25.684675,9.0733559 c -0.15262,-0.044888 -0.179552,-0.161597 -0.179552,-0.9067389 0,-0.6104777 0.009,-0.7541196 0.07182,-0.8169628 0.107732,-0.1077314 1.624948,-0.1077314 1.741657,0 0.06284,0.062843 0.07182,0.2064851 0.07182,0.8259404 0,1.0054927 0.05387,0.951627 -0.924694,0.9336718 -0.395015,-0.00898 -0.754119,-0.026933 -0.79003,-0.03591 v 0 z"
   style="stroke-width:0.897761" />
  <path
   id="path9"
   class="fil0"
   d="m 18.40383,11.299804 c -0.107731,-0.07182 -0.107731,-0.0808 -0.107731,-1.3645971 0,-1.1850451 0.009,-1.2927764 0.08978,-1.3645973 0.07182,-0.071821 0.242396,-0.080799 1.364597,-0.080799 1.220956,0 1.283799,0.00898 1.373575,0.089776 0.08978,0.089776 0.09875,0.161597 0.09875,1.3466413 0,1.1850451 -0.009,1.2568661 -0.09875,1.3466421 -0.08978,0.08978 -0.161597,0.08978 -1.355619,0.08978 -1.068336,0 -1.274821,-0.009 -1.364598,-0.07182 v 0 z"
   style="stroke-width:0.897761" />
  <path
   id="path8"
   class="fil0"
   d="m 22.569443,12.098812 c -0.06284,-0.06284 -0.07182,-0.215463 -0.07182,-0.888784 0,-0.682299 0.009,-0.834918 0.07182,-0.888784 0.06284,-0.06284 0.215463,-0.07182 0.933672,-0.07182 0.772075,0 0.870828,0.009 0.942649,0.08978 0.06284,0.07182 0.0808,0.206486 0.0808,0.888784 0,0.71821 -0.009,0.807986 -0.08978,0.879807 -0.125687,0.116709 -1.750635,0.116709 -1.867344,0 z"
   style="stroke-width:0.897761" />
  <path
   id="path7"
   class="fil1"
   d="m 6.7957759,24.640538 c -2.3970227,-0.009 -2.6663511,-0.01796 -2.7471496,-0.08978 -0.2154628,-0.197508 -0.3231941,-0.0808 4.4977845,-4.901777 L 13.133971,15.06142 12.712023,14.621517 C 12.137456,14.020021 9.3723509,11.183095 7.0830595,8.8489156 5.1528727,6.8738406 5.0810518,6.7840645 5.2426488,6.6224675 c 0.044888,-0.044888 0.8528733,-0.053866 3.375583,-0.053866 4.1476572,0 3.7975302,-0.080798 4.9107542,1.068336 0.350127,0.3591045 1.104247,1.1311792 1.678814,1.7147244 0.574567,0.583545 1.229933,1.2568661 1.454373,1.4902841 l 0.412971,0.430925 -0.18853,0.242396 c -0.170575,0.215463 -0.18853,0.251373 -0.134664,0.341149 0.06284,0.107732 0.107731,0.116709 0.152619,0.05387 0.01796,-0.02693 0.332172,-0.04489 0.781052,-0.04489 0.691277,0 0.75412,0.009 0.799008,0.08978 0.02693,0.05387 0.04489,0.395015 0.04489,0.772075 0,0.673321 0,0.682299 -0.116709,0.772075 l -0.116709,0.08978 0.215463,0.251373 0.215463,0.251373 h 0.511723 0.511724 v -0.700254 c 0,-0.619455 0.009,-0.709231 0.08978,-0.781052 0.07182,-0.06284 0.206485,-0.0808 0.924694,-0.0808 0.484791,0 0.870828,0.01796 0.924694,0.04489 0.0808,0.04489 0.08978,0.107731 0.08978,0.933671 0,0.628433 -0.01796,0.897762 -0.05387,0.94265 -0.03591,0.03591 -0.305239,0.05387 -0.888783,0.05387 h -0.834918 l -0.01796,0.574568 c -0.01795,0.41297 0,0.592522 0.03591,0.646388 0.03591,0.04489 0.278306,0.08978 0.646388,0.125686 0.960605,0.09875 0.870828,0.05387 1.822455,1.023448 1.014471,1.050381 2.684307,2.74715 4.749158,4.838934 2.720217,2.756127 2.657373,2.684306 2.414978,2.845903 -0.08978,0.06284 -0.475814,0.07182 -3.187053,0.07182 -2.02894,0 -3.19603,-0.01796 -3.420471,-0.05387 -0.619455,-0.09875 -1.256865,-0.377059 -1.580059,-0.700253 -0.251374,-0.251374 -4.075837,-4.165613 -4.443919,-4.542673 l -0.305239,-0.323194 -2.423956,2.432933 c -1.337664,1.337665 -2.540664,2.504755 -2.684306,2.603508 -0.520702,0.350127 -1.158112,0.538657 -1.9212091,0.592523 -0.125687,0.009 -1.4364182,0.009 -2.8997696,0 v 0 z"
   style="fill:#1a1a1a;stroke:#000000;stroke-width:0.897761;stroke-opacity:1" />
  <polygon
   id="path18"
   class="fil1 str0"
   points="70.96,12.5 70.96,9.68 86.06,9.68 86.06,12.5 80.65,12.5 80.65,25.54 76.37,25.54 76.37,12.5 "
   transform="matrix(0.89776133,0,0,0.89776133,6.7376728,1.4244294)"
   style="fill:#1a1a1a;stroke:#000000;stroke-width:1.48093;stroke-dasharray:none;stroke-opacity:1" />
  <polygon
   id="path18-5"
   class="fil1 str1"
   points="47.19,19.36 47.19,22.17 44.83,22.17 42.97,22.17 40.61,22.17 40.61,19.36 "
   transform="matrix(0.89776133,0,0,0.89776133,3.9678277,1.4244294)"
   style="fill:#000000;fill-opacity:1;stroke:#000000;stroke-opacity:1" />
  <path
   id="path17"
   class="fil1 str0"
   d="M 67.423964,24.353254 H 62.594009 L 54.774507,13.589096 h -0.09875 c 0.03591,0.682298 0.06284,1.355619 0.09875,2.037918 0.05387,0.682299 0.08978,1.35562 0.125687,2.037918 v 6.6973 H 51.506656 V 10.123737 h 4.803023 l 7.792569,10.665405 h 0.07182 c -0.01796,-0.664344 -0.04489,-1.319709 -0.07182,-1.975075 -0.03591,-0.655366 -0.06284,-1.301754 -0.09875,-1.95712 v -6.742188 h 3.42047 z"
   style="fill:#1a1a1a;stroke:#000000;stroke-width:1.32952;stroke-dasharray:none;stroke-opacity:1" />
  <polygon
   id="path16"
   class="fil1 str0"
   points="45.51,25.54 40.41,13.54 35.37,25.54 30.75,25.54 37.78,9.61 43.05,9.61 50.13,25.54 "
   transform="matrix(0.89776133,0,0,0.89776133,3.9678277,1.4244294)"
   style="fill:#1a1a1a;stroke:#000000;stroke-width:1.48093;stroke-dasharray:none;stroke-opacity:1" />
  <path
   class="fil2"
   d="m 36.121402,26.759254 v 3.617979 h -0.79003 v -3.617979 z m 0.888783,0 v 0.637411 h -2.540664 v -0.637411 z m 1.256866,3.671844 c -0.18853,0 -0.350127,-0.02693 -0.502746,-0.0808 -0.143642,-0.05387 -0.269329,-0.134664 -0.368082,-0.242396 -0.09875,-0.107731 -0.170575,-0.233418 -0.224441,-0.386037 -0.05386,-0.15262 -0.0808,-0.323194 -0.0808,-0.520702 V 28.94979 c 0,-0.215463 0.02693,-0.403992 0.07182,-0.56559 0.04489,-0.161597 0.116709,-0.296261 0.206485,-0.41297 0.08978,-0.107731 0.206485,-0.197507 0.341149,-0.251373 0.134664,-0.05387 0.296261,-0.0808 0.475814,-0.0808 0.170574,0 0.314216,0.02693 0.44888,0.0808 0.125687,0.05387 0.233418,0.134664 0.323194,0.242396 0.08978,0.107731 0.15262,0.242395 0.197508,0.403992 0.04489,0.161597 0.07182,0.350127 0.07182,0.56559 v 0.350127 h -1.831433 v -0.511724 h 1.095268 v -0.0808 c 0,-0.107731 -0.009,-0.197507 -0.03591,-0.26035 -0.01796,-0.06284 -0.05387,-0.116709 -0.09875,-0.143642 -0.04489,-0.02693 -0.09875,-0.04489 -0.170574,-0.04489 -0.07182,0 -0.125687,0.009 -0.170575,0.03591 -0.04489,0.02693 -0.0808,0.06284 -0.09875,0.125687 -0.02693,0.05387 -0.03591,0.125686 -0.05386,0.215462 -0.009,0.08978 -0.01796,0.197508 -0.01796,0.323195 v 0.251373 c 0,0.116709 0.009,0.215462 0.02693,0.296261 0.01796,0.0808 0.05387,0.143642 0.08978,0.18853 0.03591,0.04489 0.08978,0.0808 0.143642,0.09875 0.06284,0.01795 0.125687,0.02693 0.197508,0.02693 0.107731,0 0.215462,-0.01796 0.314216,-0.05386 0.09875,-0.03591 0.179552,-0.09875 0.251373,-0.179553 l 0.305239,0.466836 c -0.04489,0.06284 -0.116709,0.116709 -0.197507,0.179553 -0.08978,0.06284 -0.18853,0.107731 -0.305239,0.143641 -0.116709,0.03591 -0.251373,0.05387 -0.403993,0.05387 z m 2.316221,-0.610477 c 0.06284,0 0.107731,-0.009 0.152619,-0.03591 0.04489,-0.02693 0.07182,-0.06284 0.08978,-0.116709 0.01796,-0.05386 0.02693,-0.134664 0.02693,-0.22444 h 0.709228 c 0,0.215463 -0.03591,0.395015 -0.125687,0.538657 -0.08978,0.152619 -0.197507,0.26035 -0.350126,0.341149 -0.143639,0.0808 -0.305236,0.116709 -0.493766,0.116709 -0.179552,0 -0.341145,-0.02693 -0.47581,-0.0808 -0.134664,-0.05387 -0.242395,-0.134664 -0.332171,-0.251373 -0.08978,-0.107731 -0.15262,-0.242395 -0.197508,-0.403992 -0.04489,-0.161597 -0.06284,-0.34115 -0.06284,-0.547635 v -0.22444 c 0,-0.206485 0.01796,-0.395015 0.06284,-0.547635 0.04489,-0.161597 0.107732,-0.296261 0.197508,-0.403992 0.08978,-0.107731 0.197507,-0.18853 0.332171,-0.251373 0.134665,-0.05387 0.296258,-0.0808 0.47581,-0.0808 0.197508,0 0.368083,0.03591 0.511721,0.116709 0.143642,0.0808 0.260351,0.197508 0.341149,0.350127 0.0808,0.15262 0.125687,0.359105 0.116709,0.592523 h -0.709228 c 0,-0.09875 -0.009,-0.18853 -0.02693,-0.251374 -0.01796,-0.06284 -0.04489,-0.116709 -0.08978,-0.152619 -0.03591,-0.03591 -0.08978,-0.05387 -0.161597,-0.05387 -0.07182,0 -0.125686,0.01796 -0.161597,0.04489 -0.03591,0.02693 -0.07182,0.07182 -0.08978,0.125687 -0.01796,0.05387 -0.02693,0.125687 -0.03591,0.206485 0,0.0808 -0.009,0.179552 -0.009,0.296261 v 0.224441 c 0,0.116709 0,0.215462 0.009,0.305238 0.009,0.0808 0.01795,0.15262 0.03591,0.206486 0.01796,0.05386 0.05387,0.09875 0.08978,0.125686 0.04489,0.02693 0.09875,0.03591 0.170575,0.03591 z m 2.100751,-1.553127 v 2.118716 h -0.754116 v -2.693284 h 0.709227 l 0.05387,0.574568 z m -0.09875,0.682298 h -0.188531 c 0,-0.206485 0.01796,-0.386037 0.05387,-0.547634 0.04489,-0.161597 0.09875,-0.296262 0.179552,-0.41297 0.0808,-0.116709 0.170575,-0.197508 0.278306,-0.260351 0.107732,-0.06284 0.233421,-0.08978 0.368085,-0.08978 0.107732,0 0.197508,0.01796 0.287284,0.05386 0.08978,0.03591 0.161597,0.08978 0.22444,0.170575 0.06284,0.0808 0.107732,0.18853 0.143642,0.323194 0.03591,0.134664 0.05387,0.296261 0.05387,0.484791 v 1.696769 H 43.222694 V 28.6625 c 0,-0.107732 -0.009,-0.197508 -0.03591,-0.260351 -0.01796,-0.06284 -0.05387,-0.09875 -0.08978,-0.125687 -0.04489,-0.02693 -0.09875,-0.03591 -0.161597,-0.03591 -0.06284,0 -0.116709,0.01796 -0.161597,0.05387 -0.04489,0.03591 -0.0808,0.0808 -0.107731,0.143642 -0.02693,0.06284 -0.05387,0.134664 -0.06284,0.215463 -0.009,0.0808 -0.01796,0.170575 -0.01796,0.269328 z m 1.795525,0.197508 v -0.215463 c 0,-0.215463 0.02693,-0.395015 0.0808,-0.556612 0.05387,-0.161597 0.125686,-0.296261 0.22444,-0.403993 0.09875,-0.107731 0.215463,-0.18853 0.341149,-0.242395 0.134664,-0.05387 0.287284,-0.0808 0.448881,-0.0808 0.170575,0 0.323194,0.02693 0.457858,0.0808 0.134664,0.05386 0.251373,0.134664 0.350127,0.242395 0.09875,0.107732 0.170575,0.242396 0.22444,0.403993 0.05387,0.161597 0.0808,0.350127 0.0808,0.556612 V 29.1473 c 0,0.206485 -0.02693,0.395015 -0.0808,0.556612 -0.05387,0.161597 -0.125686,0.296261 -0.22444,0.403992 -0.09875,0.107732 -0.215463,0.18853 -0.350127,0.242396 -0.134664,0.05387 -0.287283,0.0808 -0.44888,0.0808 -0.170575,0 -0.314217,-0.02693 -0.448881,-0.0808 -0.134664,-0.05387 -0.251373,-0.134664 -0.350127,-0.242396 -0.09875,-0.107731 -0.170575,-0.242395 -0.22444,-0.403992 -0.05387,-0.161597 -0.0808,-0.350127 -0.0808,-0.556612 z m 0.75412,-0.215463 V 29.1473 c 0,0.116709 0.009,0.22444 0.01796,0.305238 0.01796,0.08978 0.03591,0.15262 0.06284,0.206486 0.02693,0.05386 0.06284,0.08978 0.107732,0.116709 0.04489,0.02693 0.08978,0.03591 0.143641,0.03591 0.06284,0 0.116709,-0.009 0.161597,-0.03591 0.04489,-0.02693 0.0808,-0.06284 0.107732,-0.116709 0.02693,-0.05387 0.04489,-0.125687 0.06284,-0.206486 0.009,-0.08978 0.01796,-0.188529 0.01796,-0.305238 v -0.215463 c 0,-0.116709 -0.009,-0.215463 -0.02693,-0.305239 -0.01796,-0.08978 -0.03591,-0.152619 -0.06284,-0.206485 -0.02693,-0.05387 -0.06284,-0.09875 -0.107731,-0.125687 -0.04489,-0.02693 -0.08978,-0.03591 -0.143642,-0.03591 -0.05387,0 -0.09875,0.01796 -0.143642,0.03591 -0.04489,0.02693 -0.0808,0.06284 -0.107731,0.125687 -0.02693,0.05387 -0.05387,0.125687 -0.06284,0.206485 -0.01796,0.08978 -0.01796,0.18853 -0.01796,0.305239 z m 2.63044,-2.37009 v 3.815486 h -0.754119 v -3.815486 z m 0.439903,2.576575 v -0.215463 c 0,-0.215462 0.02693,-0.395015 0.0808,-0.556612 0.05387,-0.161597 0.125686,-0.296261 0.22444,-0.403992 0.09875,-0.107732 0.215463,-0.18853 0.34115,-0.242396 0.134664,-0.05387 0.287283,-0.0808 0.44888,-0.0808 0.170575,0 0.323194,0.02693 0.457858,0.0808 0.134665,0.05387 0.251374,0.134664 0.350127,0.242396 0.09875,0.107731 0.170575,0.242395 0.224441,0.403992 0.05386,0.161597 0.0808,0.350127 0.0808,0.556612 v 0.215463 c 0,0.206485 -0.02693,0.395015 -0.0808,0.556612 -0.05387,0.161597 -0.125687,0.296261 -0.224441,0.403993 -0.09875,0.107731 -0.215462,0.18853 -0.350127,0.242395 -0.134664,0.05387 -0.287283,0.0808 -0.44888,0.0808 -0.170575,0 -0.314217,-0.02693 -0.448881,-0.0808 -0.134664,-0.05387 -0.251373,-0.134664 -0.350127,-0.242395 -0.09875,-0.107732 -0.170574,-0.242396 -0.22444,-0.403993 -0.05387,-0.161597 -0.0808,-0.350127 -0.0808,-0.556612 z m 0.75412,-0.215463 v 0.215463 c 0,0.116709 0.009,0.22444 0.01796,0.305239 0.01796,0.08978 0.03591,0.152619 0.06284,0.206485 0.02693,0.05387 0.06284,0.08978 0.107732,0.116709 0.04489,0.02693 0.08978,0.03591 0.143642,0.03591 0.06284,0 0.116709,-0.009 0.161597,-0.03591 0.04489,-0.02693 0.0808,-0.06284 0.107731,-0.116709 0.02693,-0.05387 0.04489,-0.125687 0.06284,-0.206485 0.009,-0.08978 0.01796,-0.18853 0.01796,-0.305239 v -0.215463 c 0,-0.116709 -0.009,-0.215462 -0.02693,-0.305239 -0.01796,-0.08978 -0.03591,-0.152619 -0.06284,-0.206485 -0.02693,-0.05387 -0.06284,-0.09875 -0.107731,-0.125686 -0.04489,-0.02693 -0.08978,-0.03591 -0.143642,-0.03591 -0.05387,0 -0.09875,0.01796 -0.143642,0.03591 -0.04489,0.02693 -0.0808,0.06284 -0.107731,0.125686 -0.02693,0.05387 -0.05387,0.125687 -0.06284,0.206485 -0.01796,0.08978 -0.01796,0.18853 -0.01796,0.305239 z m 3.249896,-1.23891 h 0.682298 v 2.675328 c 0,0.242396 -0.04489,0.448881 -0.143641,0.610478 -0.09875,0.161597 -0.233418,0.278306 -0.403993,0.350127 -0.170575,0.07182 -0.37706,0.116709 -0.6015,0.116709 -0.08978,0 -0.18853,-0.009 -0.287284,-0.03591 -0.107731,-0.02693 -0.206485,-0.06284 -0.296261,-0.107732 -0.08978,-0.04489 -0.170575,-0.09875 -0.233418,-0.152619 l 0.260351,-0.502747 c 0.05387,0.05387 0.134664,0.09875 0.22444,0.143642 0.09875,0.04489 0.197508,0.06284 0.305239,0.06284 0.08978,0 0.170575,-0.01796 0.233418,-0.04489 0.06284,-0.02693 0.107731,-0.0808 0.143642,-0.152619 0.03591,-0.07182 0.04489,-0.161597 0.04489,-0.287284 v -2.046895 z m -1.490284,1.454373 v -0.215463 c 0,-0.215462 0.01796,-0.41297 0.06284,-0.574567 0.04489,-0.161597 0.107732,-0.296261 0.18853,-0.403993 0.0808,-0.107731 0.179553,-0.188529 0.296261,-0.242395 0.116709,-0.05387 0.242396,-0.0808 0.386038,-0.0808 0.152619,0 0.278306,0.03591 0.368082,0.09875 0.09875,0.06284 0.170575,0.161597 0.233418,0.278306 0.05387,0.116709 0.09875,0.260351 0.134664,0.41297 0.02693,0.161597 0.05387,0.332172 0.0808,0.511724 v 0.215463 c -0.01796,0.179552 -0.05387,0.341149 -0.08978,0.493769 -0.03591,0.152619 -0.08978,0.287283 -0.15262,0.403992 -0.06284,0.116709 -0.134664,0.206485 -0.233418,0.269329 -0.08978,0.06284 -0.206485,0.09875 -0.341149,0.09875 -0.143642,0 -0.269329,-0.02693 -0.386038,-0.0808 -0.116708,-0.05387 -0.206485,-0.134664 -0.287283,-0.242396 -0.0808,-0.107731 -0.143642,-0.242395 -0.179552,-0.403992 -0.04489,-0.161597 -0.06284,-0.34115 -0.06284,-0.556612 z m 0.75412,-0.215463 v 0.215463 c 0,0.116709 0.009,0.22444 0.01796,0.305239 0.01796,0.0808 0.03591,0.152619 0.07182,0.206485 0.02693,0.05387 0.07182,0.08978 0.116709,0.116709 0.04489,0.02693 0.107731,0.03591 0.170574,0.03591 0.09875,0 0.170575,-0.02693 0.224441,-0.07182 0.05387,-0.04489 0.09875,-0.116708 0.125686,-0.197507 0.02693,-0.08978 0.03591,-0.18853 0.03591,-0.296261 v -0.386038 c 0,-0.09875 -0.009,-0.179552 -0.01796,-0.26035 -0.01796,-0.07182 -0.03591,-0.134665 -0.07182,-0.18853 -0.02693,-0.05387 -0.07182,-0.08978 -0.116709,-0.116709 -0.04489,-0.02693 -0.107732,-0.03591 -0.170575,-0.03591 -0.06284,0 -0.116709,0.009 -0.161597,0.03591 -0.04489,0.02693 -0.08978,0.06284 -0.116709,0.116709 -0.02693,0.05387 -0.05387,0.125686 -0.07182,0.206485 -0.01796,0.08978 -0.02693,0.18853 -0.02693,0.314216 z m 2.720216,-1.247888 v 2.693284 h -0.763097 v -2.693284 z m -0.736164,-0.305239 0.493769,-0.772075 h 0.834918 l -0.691276,0.772075 h -0.628433 z m 2.441911,2.352135 v -1.211978 c 0,-0.0808 -0.009,-0.143642 -0.02693,-0.179552 -0.01796,-0.04489 -0.03591,-0.0808 -0.07182,-0.09875 -0.02693,-0.01796 -0.07182,-0.02693 -0.125686,-0.02693 -0.05387,0 -0.08978,0.009 -0.125687,0.03591 -0.03591,0.01796 -0.05387,0.05387 -0.07182,0.09875 -0.01796,0.04489 -0.01796,0.09875 -0.01796,0.161597 h -0.75412 c 0,-0.116709 0.02693,-0.233417 0.07182,-0.341149 0.04489,-0.107731 0.116709,-0.197507 0.197508,-0.278306 0.08978,-0.0808 0.197507,-0.143642 0.314216,-0.18853 0.125687,-0.04489 0.260351,-0.07182 0.41297,-0.07182 0.179553,0 0.34115,0.02693 0.484792,0.08978 0.143641,0.06284 0.26035,0.15262 0.341149,0.287284 0.0808,0.125687 0.125686,0.305239 0.125686,0.511724 v 1.185045 c 0,0.161597 0.009,0.287284 0.02693,0.386037 0.01796,0.08978 0.04489,0.170575 0.07182,0.242396 v 0.04489 h -0.754119 c -0.03591,-0.0808 -0.06284,-0.179552 -0.0808,-0.296261 -0.01796,-0.116709 -0.02693,-0.233418 -0.02693,-0.359105 z m 0.08978,-0.996515 v 0.430925 h -0.233418 c -0.06284,0 -0.107731,0.009 -0.152619,0.03591 -0.04489,0.02693 -0.0808,0.05386 -0.107732,0.08978 -0.02693,0.03591 -0.04489,0.0808 -0.06284,0.134664 -0.01796,0.05387 -0.01796,0.09875 -0.01796,0.152619 0,0.07182 0.009,0.125687 0.02693,0.161597 0.01796,0.03591 0.04489,0.06284 0.07182,0.0808 0.02693,0.01796 0.06284,0.02693 0.107731,0.02693 0.07182,0 0.125687,-0.01795 0.179552,-0.04489 0.05387,-0.02693 0.08978,-0.06284 0.107732,-0.107732 0.02693,-0.04489 0.02693,-0.0808 0.01796,-0.107731 l 0.125686,0.296261 c -0.02693,0.06284 -0.05387,0.125687 -0.0808,0.18853 -0.02693,0.06284 -0.07182,0.116709 -0.116709,0.170575 -0.04489,0.05387 -0.09875,0.09875 -0.170575,0.125686 -0.06284,0.03591 -0.143642,0.04489 -0.242395,0.04489 -0.143642,0 -0.269329,-0.02693 -0.386038,-0.08978 -0.116709,-0.06284 -0.215462,-0.152619 -0.287283,-0.269328 -0.07182,-0.116709 -0.107732,-0.260351 -0.107732,-0.430925 0,-0.134665 0.01796,-0.251374 0.06284,-0.359105 0.04489,-0.107731 0.107731,-0.206485 0.188529,-0.287284 0.08978,-0.0808 0.197508,-0.143641 0.34115,-0.18853 0.134664,-0.04489 0.305239,-0.06284 0.493769,-0.06284 h 0.242395 z m 3.591045,2.675329 v -3.169098 l 0.09875,-0.556612 h 0.664344 v 3.72571 z m -1.364605,-2.271337 v -0.215462 c 0,-0.215463 0.01796,-0.412971 0.05387,-0.574568 0.03591,-0.161597 0.08978,-0.296261 0.170574,-0.403992 0.07182,-0.107732 0.161598,-0.18853 0.269329,-0.233418 0.107731,-0.05387 0.242395,-0.0808 0.386037,-0.0808 0.134664,0 0.242396,0.03591 0.34115,0.09875 0.08978,0.06284 0.170574,0.15262 0.233418,0.269329 0.06284,0.116708 0.107731,0.251373 0.152619,0.41297 0.03591,0.161597 0.06284,0.332171 0.08978,0.511724 v 0.215462 c -0.02693,0.170575 -0.05387,0.34115 -0.08978,0.493769 -0.03591,0.15262 -0.08978,0.287284 -0.152619,0.403993 -0.06284,0.116709 -0.134665,0.206485 -0.233418,0.278306 -0.08978,0.06284 -0.206486,0.09875 -0.34115,0.09875 -0.143642,0 -0.269328,-0.02693 -0.377059,-0.0808 -0.107732,-0.05387 -0.197508,-0.134664 -0.269329,-0.242396 -0.07182,-0.107731 -0.125686,-0.242395 -0.170575,-0.403992 -0.03591,-0.161597 -0.05387,-0.350127 -0.05387,-0.556612 z m 0.75412,-0.215462 v 0.215462 c 0,0.116709 0.009,0.224441 0.01796,0.314217 0.009,0.08978 0.02693,0.152619 0.05387,0.206485 0.02693,0.05387 0.06284,0.08978 0.09875,0.116709 0.04489,0.02693 0.09875,0.03591 0.161597,0.03591 0.09875,0 0.170575,-0.02693 0.224441,-0.07182 0.05387,-0.04489 0.08978,-0.116708 0.107731,-0.197507 0.01796,-0.08978 0.02693,-0.18853 0.02693,-0.305239 v -0.386037 c 0,-0.09875 0,-0.179552 -0.01796,-0.260351 -0.009,-0.07182 -0.03591,-0.134664 -0.06284,-0.18853 -0.02693,-0.05387 -0.06284,-0.08978 -0.107731,-0.116709 -0.04489,-0.02693 -0.09875,-0.03591 -0.170575,-0.03591 -0.06284,0 -0.116709,0.009 -0.152619,0.03591 -0.04489,0.02693 -0.0808,0.06284 -0.107731,0.116709 -0.02693,0.05387 -0.04489,0.125687 -0.05387,0.206485 -0.009,0.08978 -0.01796,0.18853 -0.01796,0.314217 z m 3.142164,0.799007 v -2.037918 h 0.75412 v 2.693284 h -0.709232 l -0.04489,-0.646388 z m 0.0808,-0.556612 h 0.197507 c 0,0.179552 -0.01796,0.350127 -0.05387,0.502747 -0.03591,0.152619 -0.08978,0.287283 -0.161597,0.395015 -0.07182,0.116709 -0.15262,0.197507 -0.260351,0.26035 -0.09875,0.06284 -0.224441,0.08978 -0.359105,0.08978 -0.107731,0 -0.215462,-0.01796 -0.305239,-0.05387 -0.08978,-0.03591 -0.170574,-0.09875 -0.242395,-0.179552 -0.06284,-0.0808 -0.116709,-0.179553 -0.15262,-0.314217 -0.03591,-0.125687 -0.05386,-0.278306 -0.05386,-0.457858 v -1.741657 h 0.754119 v 1.741657 c 0,0.06284 0.009,0.125686 0.01796,0.170574 0.009,0.04489 0.02693,0.08978 0.04489,0.116709 0.01796,0.02693 0.04489,0.05387 0.07182,0.07182 0.02693,0.01796 0.06284,0.01796 0.107732,0.01796 0.09875,0 0.170575,-0.02693 0.233418,-0.0808 0.05387,-0.05387 0.09875,-0.134664 0.116709,-0.22444 0.02693,-0.09875 0.03591,-0.206485 0.03591,-0.323194 z m 2.262358,1.247888 c -0.18853,0 -0.350127,-0.02693 -0.502746,-0.0808 -0.143642,-0.05387 -0.269328,-0.134664 -0.368082,-0.242396 -0.09875,-0.107731 -0.170575,-0.233418 -0.22444,-0.386037 -0.05387,-0.152619 -0.0808,-0.323194 -0.0808,-0.520702 v -0.251373 c 0,-0.215462 0.02693,-0.403992 0.07182,-0.565589 0.04489,-0.161597 0.116709,-0.296262 0.206485,-0.412971 0.08978,-0.107731 0.206485,-0.197507 0.341149,-0.251373 0.134665,-0.05386 0.296262,-0.0808 0.475814,-0.0808 0.170575,0 0.314216,0.02693 0.448881,0.0808 0.125686,0.05387 0.233417,0.134664 0.323194,0.242396 0.08978,0.107731 0.152619,0.242395 0.197507,0.403992 0.04489,0.161597 0.07182,0.350127 0.07182,0.56559 v 0.350127 h -1.831433 v -0.511724 h 1.095269 v -0.0808 c 0,-0.107732 -0.009,-0.197508 -0.03591,-0.260351 -0.01796,-0.06284 -0.05387,-0.116709 -0.09875,-0.143642 -0.04489,-0.02693 -0.09875,-0.04489 -0.170575,-0.04489 -0.07182,0 -0.125687,0.009 -0.170575,0.03591 -0.04489,0.02693 -0.0808,0.06284 -0.09875,0.125687 -0.02693,0.05387 -0.03591,0.125686 -0.05387,0.215463 -0.009,0.08978 -0.01796,0.197507 -0.01796,0.323194 v 0.251373 c 0,0.116709 0.009,0.215463 0.02693,0.296261 0.01796,0.0808 0.05387,0.143642 0.08978,0.18853 0.03591,0.04489 0.08978,0.0808 0.143641,0.09875 0.06284,0.01795 0.125687,0.02693 0.197508,0.02693 0.107731,0 0.215463,-0.01796 0.314216,-0.05387 0.09875,-0.03591 0.179553,-0.09875 0.251373,-0.179552 l 0.305239,0.466835 c -0.04489,0.06284 -0.116709,0.116709 -0.197507,0.179553 -0.08978,0.06284 -0.18853,0.107731 -0.305239,0.143642 -0.116709,0.03591 -0.251373,0.05387 -0.403993,0.05387 z M 67.72259,28.294426 V 30.3503 h -0.75412 v -2.693284 h 0.709232 z m 0.628433,-0.655365 -0.009,0.736164 c -0.02693,0 -0.07182,-0.009 -0.116709,-0.01796 -0.04489,0 -0.08978,-0.009 -0.116709,-0.009 -0.0808,0 -0.143642,0.009 -0.197508,0.03591 -0.05387,0.02693 -0.09875,0.05387 -0.134664,0.09875 -0.03591,0.04489 -0.06284,0.09875 -0.0808,0.170575 -0.01796,0.06284 -0.02693,0.143642 -0.02693,0.233418 l -0.134664,-0.0808 c 0,-0.179552 0.01796,-0.341149 0.04489,-0.484791 0.02693,-0.143642 0.07182,-0.278306 0.125686,-0.386037 0.05387,-0.107732 0.116709,-0.18853 0.197508,-0.251373 0.07182,-0.06284 0.161597,-0.08978 0.260351,-0.08978 0.03591,0 0.07182,0 0.107731,0.009 0.03591,0.009 0.07182,0.009 0.08978,0.01795 z m 1.400507,2.756127 c -0.18853,0 -0.350127,-0.02693 -0.502746,-0.0808 -0.143642,-0.05387 -0.269329,-0.134664 -0.368082,-0.242395 -0.09875,-0.107732 -0.170575,-0.233418 -0.224441,-0.386038 -0.05387,-0.152619 -0.0808,-0.323194 -0.0808,-0.520701 v -0.251373 c 0,-0.215463 0.02693,-0.403993 0.07182,-0.56559 0.04489,-0.161597 0.116709,-0.296261 0.206485,-0.41297 0.08978,-0.107732 0.206485,-0.197508 0.341149,-0.251373 0.134664,-0.05387 0.296261,-0.0808 0.475814,-0.0808 0.170574,0 0.314216,0.02693 0.44888,0.0808 0.125687,0.05386 0.233418,0.134664 0.323194,0.242395 0.08978,0.107732 0.15262,0.242396 0.197508,0.403993 0.04489,0.161597 0.07182,0.350127 0.07182,0.565589 v 0.350127 h -1.831433 v -0.511724 h 1.095269 v -0.0808 c 0,-0.107731 -0.009,-0.197508 -0.03591,-0.260351 -0.01796,-0.06284 -0.05387,-0.116709 -0.09875,-0.143642 -0.04489,-0.02693 -0.09875,-0.04489 -0.170574,-0.04489 -0.07182,0 -0.125687,0.009 -0.170575,0.03591 -0.04489,0.02693 -0.0808,0.06284 -0.09875,0.125686 -0.02693,0.05387 -0.03591,0.125687 -0.05387,0.215463 -0.009,0.08978 -0.01796,0.197507 -0.01796,0.323194 v 0.251373 c 0,0.116709 0.009,0.215463 0.02693,0.296261 0.01796,0.0808 0.05387,0.143642 0.08978,0.18853 0.03591,0.04489 0.08978,0.0808 0.143642,0.09875 0.06284,0.01796 0.125687,0.02693 0.197507,0.02693 0.107732,0 0.215462,-0.01795 0.314216,-0.05387 0.09875,-0.03591 0.179552,-0.09875 0.251373,-0.179552 l 0.305239,0.466836 c -0.04489,0.06284 -0.116708,0.116709 -0.197507,0.179552 -0.08978,0.06284 -0.188529,0.107732 -0.305239,0.143642 -0.116708,0.03591 -0.251373,0.05387 -0.403993,0.05387 z m 2.504754,-0.781052 c 0,-0.04489 -0.01796,-0.08978 -0.05387,-0.116709 -0.03591,-0.03591 -0.0808,-0.06284 -0.143642,-0.09875 -0.06284,-0.03591 -0.15262,-0.0808 -0.251373,-0.125687 -0.116709,-0.04489 -0.224441,-0.09875 -0.314217,-0.152619 -0.08978,-0.05387 -0.170574,-0.116709 -0.242395,-0.179552 -0.07182,-0.06284 -0.116709,-0.134665 -0.15262,-0.224441 -0.03591,-0.08978 -0.05387,-0.179552 -0.05387,-0.296261 0,-0.116709 0.01796,-0.22444 0.06284,-0.323194 0.04489,-0.09875 0.107731,-0.18853 0.18853,-0.260351 0.0808,-0.07182 0.179552,-0.134664 0.296261,-0.170575 0.116709,-0.04489 0.251373,-0.06284 0.395015,-0.06284 0.206485,0 0.386037,0.03591 0.529679,0.107731 0.15262,0.07182 0.260351,0.170575 0.341149,0.296262 0.0808,0.125686 0.116709,0.278306 0.116709,0.44888 h -0.754119 c 0,-0.06284 -0.009,-0.116709 -0.01796,-0.161597 -0.01796,-0.04489 -0.04489,-0.0808 -0.07182,-0.107731 -0.03591,-0.02693 -0.0808,-0.03591 -0.143642,-0.03591 -0.03591,0 -0.07182,0.009 -0.107731,0.02693 -0.03591,0.01796 -0.06284,0.04489 -0.0808,0.0808 -0.01796,0.03591 -0.02693,0.07182 -0.02693,0.125686 0,0.03591 0.009,0.06284 0.01796,0.08978 0.01796,0.02693 0.03591,0.05387 0.07182,0.0808 0.02693,0.02693 0.07182,0.04489 0.116708,0.07182 0.04489,0.02693 0.107733,0.05387 0.170575,0.08978 0.161598,0.06284 0.305239,0.125687 0.430925,0.197508 0.125687,0.07182 0.224441,0.161597 0.296262,0.26035 0.07182,0.107732 0.107732,0.242396 0.107732,0.412971 0,0.116709 -0.02693,0.22444 -0.07182,0.323194 -0.04489,0.09875 -0.116709,0.179552 -0.197507,0.251373 -0.08978,0.07182 -0.18853,0.125687 -0.314217,0.161597 -0.125686,0.03591 -0.260351,0.05387 -0.41297,0.05387 -0.215463,0 -0.403993,-0.04489 -0.556612,-0.134665 -0.15262,-0.08978 -0.260351,-0.197507 -0.341149,-0.332171 -0.0808,-0.134664 -0.116709,-0.278306 -0.116709,-0.421948 h 0.709231 c 0,0.08978 0.01796,0.152619 0.04489,0.197507 0.02693,0.05387 0.06284,0.0808 0.107731,0.107732 0.04489,0.01796 0.107732,0.02693 0.170575,0.02693 0.05387,0 0.107731,-0.009 0.143642,-0.02693 0.03591,-0.01795 0.06284,-0.04489 0.0808,-0.0808 0.01796,-0.03591 0.02693,-0.0808 0.02693,-0.125686 z m 2.423956,0.0808 v -2.037918 h 0.754119 v 2.693284 h -0.709231 l -0.04489,-0.646388 z m 0.0808,-0.556612 h 0.197508 c 0,0.179552 -0.01796,0.350127 -0.05387,0.502746 -0.03591,0.15262 -0.08978,0.287284 -0.161597,0.395015 -0.07182,0.116709 -0.152619,0.197508 -0.260351,0.260351 -0.09875,0.06284 -0.22444,0.08978 -0.359104,0.08978 -0.107731,0 -0.215463,-0.01796 -0.305239,-0.05387 -0.08978,-0.03591 -0.170575,-0.09875 -0.242396,-0.179553 -0.06284,-0.0808 -0.116709,-0.179552 -0.152619,-0.314216 -0.03591,-0.125687 -0.05387,-0.278306 -0.05387,-0.457858 v -1.741657 h 0.75412 v 1.741657 c 0,0.06284 0.009,0.125686 0.01796,0.170574 0.009,0.04489 0.02693,0.08978 0.04489,0.116709 0.01796,0.02693 0.04489,0.05387 0.07182,0.07182 0.02693,0.01796 0.06284,0.01796 0.107731,0.01796 0.09875,0 0.170575,-0.02693 0.233418,-0.0808 0.05387,-0.05387 0.09875,-0.134664 0.116709,-0.224441 0.02693,-0.09875 0.03591,-0.206485 0.03591,-0.323194 z m 2.262359,1.247888 c -0.18853,0 -0.350127,-0.02693 -0.502746,-0.0808 -0.143642,-0.05387 -0.269329,-0.134664 -0.368083,-0.242396 -0.09875,-0.107731 -0.170574,-0.233418 -0.22444,-0.386037 -0.05387,-0.15262 -0.0808,-0.323194 -0.0808,-0.520702 v -0.251373 c 0,-0.215463 0.02693,-0.403993 0.07182,-0.56559 0.04489,-0.161597 0.116708,-0.296261 0.206485,-0.41297 0.08978,-0.107731 0.206485,-0.197507 0.341149,-0.251373 0.134664,-0.05387 0.296261,-0.0808 0.475813,-0.0808 0.170575,0 0.314217,0.02693 0.448881,0.0808 0.125687,0.05387 0.233418,0.134664 0.323194,0.242396 0.08978,0.107731 0.15262,0.242395 0.197508,0.403992 0.04489,0.161597 0.07182,0.350127 0.07182,0.56559 v 0.350127 h -1.831434 v -0.511724 h 1.095269 v -0.0808 c 0,-0.107731 -0.009,-0.197507 -0.03591,-0.260351 -0.01796,-0.06284 -0.05387,-0.116708 -0.09875,-0.143641 -0.04489,-0.02693 -0.09875,-0.04489 -0.170575,-0.04489 -0.07182,0 -0.125686,0.009 -0.170574,0.03591 -0.04489,0.02693 -0.0808,0.06284 -0.09875,0.125687 -0.02693,0.05387 -0.03591,0.125686 -0.05387,0.215462 -0.009,0.08978 -0.01796,0.197508 -0.01796,0.323194 v 0.251374 c 0,0.116709 0.009,0.215462 0.02693,0.296261 0.01796,0.0808 0.05387,0.143642 0.08978,0.18853 0.03591,0.04489 0.08978,0.0808 0.143642,0.09875 0.06284,0.01796 0.125686,0.02693 0.197507,0.02693 0.107732,0 0.215463,-0.01796 0.314217,-0.05386 0.09875,-0.03591 0.179552,-0.09875 0.251373,-0.179553 l 0.305239,0.466836 c -0.04489,0.06284 -0.116709,0.116709 -0.197508,0.179553 -0.08978,0.06284 -0.188529,0.107731 -0.305238,0.143641 -0.116709,0.03591 -0.251374,0.05387 -0.403993,0.05387 z m 2.127694,-3.869351 v 3.815486 h -0.754119 v -3.815486 z m 1.337665,3.258874 0.403992,-2.136672 h 0.79003 l -0.727186,2.693284 h -0.466836 z m -0.206485,-2.136672 0.403992,2.136672 v 0.556612 h -0.466836 l -0.727186,-2.693284 z m 2.78306,2.738172 c -0.18853,0 -0.350127,-0.02693 -0.502747,-0.0808 -0.143641,-0.05387 -0.269328,-0.134664 -0.368082,-0.242395 -0.09875,-0.107732 -0.170574,-0.233418 -0.22444,-0.386038 -0.05387,-0.152619 -0.0808,-0.323194 -0.0808,-0.520701 v -0.251374 c 0,-0.215462 0.02693,-0.403992 0.07182,-0.565589 0.04489,-0.161597 0.116709,-0.296261 0.206485,-0.41297 0.08978,-0.107732 0.206485,-0.197508 0.34115,-0.251374 0.134664,-0.05386 0.296261,-0.0808 0.475813,-0.0808 0.170575,0 0.314217,0.02693 0.448881,0.0808 0.125686,0.05387 0.233418,0.134665 0.323194,0.242396 0.08978,0.107731 0.152619,0.242396 0.197507,0.403993 0.04489,0.161597 0.07182,0.350127 0.07182,0.565589 v 0.350127 h -1.831433 v -0.511725 h 1.095269 v -0.0808 c 0,-0.107732 -0.009,-0.197508 -0.03591,-0.260351 -0.01796,-0.06284 -0.05387,-0.116709 -0.09875,-0.143642 -0.04489,-0.02693 -0.09875,-0.04489 -0.170575,-0.04489 -0.07182,0 -0.125687,0.009 -0.170575,0.03591 -0.04489,0.02693 -0.0808,0.06284 -0.09875,0.125687 -0.02693,0.05387 -0.03591,0.125687 -0.05387,0.215463 -0.009,0.08978 -0.01796,0.197507 -0.01796,0.323194 v 0.251373 c 0,0.116709 0.009,0.215463 0.02693,0.296261 0.01796,0.0808 0.05387,0.143642 0.08978,0.18853 0.03591,0.04489 0.08978,0.0808 0.143641,0.09875 0.06284,0.01796 0.125686,0.02693 0.197507,0.02693 0.107732,0 0.215463,-0.01796 0.314217,-0.05387 0.09875,-0.03591 0.179552,-0.09875 0.251373,-0.179552 l 0.305239,0.466836 c -0.04489,0.06284 -0.116708,0.116709 -0.197508,0.179552 -0.08978,0.06284 -0.188529,0.107731 -0.305239,0.143642 -0.116709,0.03591 -0.251373,0.05387 -0.403992,0.05387 z"
   id="path1"
   style="fill:#1a1a1a;stroke:#000000;stroke-width:0;stroke-dasharray:none;stroke-opacity:1" />
 </g>
</svg>
